<?xml version="1.0" encoding="UTF-8"?>
<svg width="67px" height="67px" viewBox="0 0 67 67" version="1.1" xmlns="http://www.w3.org/2000/svg" xmlns:xlink="http://www.w3.org/1999/xlink">
    <title>Artboard</title>
    <g id="Artboard" stroke="none" stroke-width="1" fill="none" fill-rule="evenodd">
        <path d="M33.7884643,3.9296901 C41.5998054,3.92636642 48.864893,7.94053936 53.0220729,14.5562755 C57.1792529,21.1720116 57.643693,29.4607633 54.2497713,36.4987026 L54.2497713,36.4987026 L54.2342507,36.5292564 C53.9707381,37.0493277 53.1305088,38.732638 39.0270099,61.1333194 C37.9227797,62.8741801 36.0033266,63.9296901 33.9409497,63.9296901 C31.8785727,63.9296901 29.9623622,62.8741801 28.858132,61.1333194 C14.7777038,39.1900343 13.5949111,37.0192383 13.3302948,36.4755294 L13.3078114,36.4287697 L13.3078114,36.4287697 L13.3011333,36.4147275 C9.94620598,29.3799477 10.4301017,21.1175526 14.5872816,14.5246809 C18.7444616,7.93180928 25.9937519,3.93377119 33.7884643,3.9305236 Z M33.7887137,7.75538438 C27.3124094,7.75978517 21.2879905,11.0823697 17.8323763,16.5613665 C14.3766789,22.0372039 13.9674461,28.903036 16.7508444,34.7523544 C17.1956433,35.6920705 21.4228538,42.3841598 25.5837099,48.8977538 L26.0455587,49.6204506 L26.0455587,49.6204506 L26.5056881,50.3398704 C28.6471217,53.6867041 30.6940645,56.8674302 32.1099613,59.0552283 C32.5159515,59.6983108 33.2207099,60.0848157 33.9806923,60.0848157 C34.7309801,60.0880381 35.4292533,59.7015284 35.8254825,59.0617135 L35.8254825,59.0617135 C37.3240008,56.6460536 39.5947845,53.0131492 41.9195356,49.2871522 L42.3699684,48.56513 C46.3513365,42.182317 50.3549937,35.7387749 50.7913302,34.8360859 C53.610397,28.9827765 53.2271051,22.0945788 49.7747334,16.5960432 C46.318454,11.0973413 40.2810648,7.75538438 33.7887137,7.75538438 L33.7887137,7.75538438 Z M33.2225058,13.782547 C39.2539919,13.7858727 44.1419109,18.6740512 44.1484061,24.7084473 C44.1484061,29.1257004 41.4852335,33.110773 37.4027165,34.7995858 C33.3205321,36.4916412 28.6209234,35.5562757 25.4965532,32.4319056 C22.3721332,29.3073691 21.4367344,24.6082592 23.128873,20.5257423 C24.8216766,16.4432253 28.803091,13.7832953 33.2233373,13.7832953 L33.2233373,13.7832953 Z M35.945043,18.1419272 C33.2915981,17.0409396 30.2386484,17.645061 28.2055379,19.6749288 C26.1723943,21.7047966 25.5618209,24.760989 26.6628085,27.4144338 C27.7605534,30.0678786 30.3490631,31.7989284 33.2233373,31.7989284 L33.2233373,31.7989284 L33.4622051,31.7949012 C37.2686877,31.6690215 40.3198711,28.545818 40.3230568,24.7089411 C40.3262949,21.8346669 38.5984878,19.2429147 35.945043,18.1419272 Z" id="Combined-Shape" fill="#000000" fill-rule="nonzero"></path>
    </g>
</svg>