<?xml version="1.0" encoding="UTF-8"?>
<svg width="948px" height="208px" viewBox="0 0 948 208" version="1.1" xmlns="http://www.w3.org/2000/svg" xmlns:xlink="http://www.w3.org/1999/xlink">
    <title>Logo 2</title>
    <defs>
        <linearGradient x1="-2.4209169e-06%" y1="49.9999891%" x2="100.000016%" y2="49.9999891%" id="linearGradient-1">
            <stop stop-color="#F99573" offset="34%"></stop>
            <stop stop-color="#FC707B" offset="100%"></stop>
        </linearGradient>
    </defs>
    <g id="Page-1" stroke="none" stroke-width="1" fill="none" fill-rule="evenodd">
        <g id="Group" fill-rule="nonzero">
            <g>
                <g id="Logo-2" transform="translate(245.000000, 49.000000)" fill="#111111">
                    <path d="M73.17,28.56 C72.93,22.4466667 72.6666667,16.2166667 72.38,9.87 C73.63,10.06 74.83,10.22 75.99,10.37 C77.1378163,10.5133091 78.2932765,10.5867777 79.45,10.59 C80.6100362,10.5864483 81.7688038,10.5129817 82.92,10.37 C84.07,10.22 85.28,10.06 86.53,9.87 C86.2433333,16.2166667 85.9766667,22.4466667 85.73,28.56 C85.4833333,34.6733333 85.3633333,40.91 85.37,47.27 L85.37,72.1 C85.37,78.46 85.49,84.72 85.73,90.88 C85.97,97.04 86.2366667,103.103333 86.53,109.07 C84.31,108.876667 81.95,108.78 79.45,108.78 C76.95,108.78 74.5933333,108.876667 72.38,109.07 C72.66,103.07 72.9233333,97.0066667 73.17,90.88 C73.4166667,84.7533333 73.5366667,78.4933333 73.53,72.1 L73.53,59.1 C68.33,59 63.3,58.9266667 58.44,58.88 C53.58,58.8333333 48.55,58.81 43.35,58.81 C38.15,58.81 33.12,58.8333333 28.26,58.88 C23.4,58.9266667 18.37,59 13.17,59.1 L13.17,72.1 C13.17,78.46 13.29,84.72 13.53,90.88 C13.77,97.04 14.0333333,103.103333 14.32,109.07 C12.1133333,108.876667 9.75666667,108.78 7.25,108.78 C4.74,108.78 2.39,108.88 0.17,109.07 C0.456666667,103.07 0.723333333,97.0066667 0.97,90.88 C1.21666667,84.7533333 1.33666667,78.4933333 1.33,72.1 L1.33,47.27 C1.33,40.91 1.21,34.6733333 0.97,28.56 C0.73,22.4466667 0.463333333,16.2166667 0.17,9.87 C1.42,10.06 2.63,10.22 3.78,10.37 C6.08068997,10.6632996 8.40931003,10.6632996 10.71,10.37 C11.87,10.22 13.07,10.06 14.32,9.87 C14.04,16.2166667 13.7766667,22.4466667 13.53,28.56 C13.2833333,34.6733333 13.1633333,40.91 13.17,47.27 L13.17,52.27 L28.26,52.56 C33.12,52.66 38.15,52.7066667 43.35,52.7 C48.55,52.6933333 53.58,52.6466667 58.44,52.56 L73.53,52.27 L73.53,47.27 C73.53,40.91 73.41,34.6733333 73.17,28.56 Z" id="Path"></path>
                    <path d="M103.13,75 C102.972727,69.2824176 104.032828,63.5967297 106.24,58.32 C108.090425,54.0475862 110.879451,50.2468554 114.4,47.2 C117.720908,44.391869 121.574553,42.283078 125.73,41 C133.881002,38.3998914 142.638998,38.3998914 150.79,41 C154.920962,42.2959169 158.749878,44.4076013 162.05,47.21 C165.570549,50.2568554 168.359575,54.0575862 170.21,58.33 C172.415777,63.6036391 173.47585,69.2857695 173.32,75 C173.32,81.5466667 172.283333,87.1066667 170.21,91.68 C168.359575,95.9524138 165.570549,99.7531446 162.05,102.8 C158.777461,105.594759 154.934872,107.642319 150.79,108.8 C142.597644,111.119224 133.922356,111.119224 125.73,108.8 C121.560234,107.652035 117.692801,105.603968 114.4,102.8 C110.879451,99.7531446 108.090425,95.9524138 106.24,91.68 C104.173333,87.1066667 103.136667,81.5466667 103.13,75 Z M115.839697,75 C115.82765,78.9259145 116.192661,82.8439283 116.93,86.7 C117.575513,90.2193242 118.820248,93.6017556 120.61,96.7 C122.289979,99.5825126 124.674517,101.991136 127.54,103.7 C134.241737,107.165932 142.208263,107.165932 148.91,103.7 C151.775483,101.991136 154.160021,99.5825126 155.84,96.7 C157.634649,93.6040529 158.879705,90.2207495 159.52,86.7 C160.9733,78.9676949 160.9733,71.0323051 159.52,63.3 C158.879705,59.7792505 157.634649,56.3959471 155.84,53.3 C154.159322,50.4180232 151.77494,48.0095572 148.91,46.3 C142.205018,42.8474337 134.244982,42.8474337 127.54,46.3 C124.67506,48.0095572 122.290678,50.4180232 120.61,53.3 C118.819167,56.3977377 117.574362,59.7803609 116.93,63.3 C116.192661,67.1560717 115.82765,71.0740855 115.839697,75 L115.839697,75 Z" id="Shape"></path>
                    <path d="M188,53.84 C187.86,49.0666667 187.546667,44.6133333 187.06,40.48 C189.202688,40.901557 191.376997,41.1424035 193.56,41.2 C194.40788,41.194887 195.253963,41.1213146 196.09,40.98 L199.34,40.48 C199.053333,44.3333333 198.91,48.1833333 198.91,52.03 L199.19,52.03 C204.303333,43.3633333 211.476667,39.03 220.71,39.03 C223.111631,39.0320499 225.498964,39.3995912 227.79,40.12 C230.016132,40.8142665 232.131045,41.8245753 234.07,43.12 C235.928416,44.3528234 237.564845,45.8912019 238.91,47.67 C240.209587,49.3589026 241.142775,51.3002077 241.65,53.37 L241.94,53.37 C244.018795,49.0047512 247.30077,45.3238046 251.4,42.76 C255.540859,40.2354069 260.310705,38.9320189 265.16,39 C268.146239,38.9749074 271.118281,39.4134607 273.97,40.3 C279.388422,41.9528014 283.700634,46.0794625 285.59,51.42 C286.773449,54.756294 287.336058,58.281073 287.25,61.82 C287.25,63.46 287.25,65.24 287.11,67.16 C286.97,69.08 286.91,71.33 286.82,73.88 C286.73,76.43 286.62,79.32 286.53,82.54 C286.44,85.76 286.39,89.54 286.39,93.73 C286.39,96.33 286.39,98.84 286.46,101.24 C286.53,103.64 286.62,106.24 286.82,109.04 C285.770684,108.849317 284.706498,108.752268 283.64,108.75 L277.43,108.75 C276.366793,108.751799 275.305885,108.848854 274.26,109.04 C274.54,106.64 274.86,101.77 275.19,94.46 C275.52,87.15 275.7,76.94 275.7,63.84 C275.710425,61.5531471 275.445179,59.2733732 274.91,57.05 C274.435149,55.0747641 273.575413,53.2125676 272.38,51.57 C271.164374,49.9837233 269.57796,48.7200859 267.76,47.89 C265.485498,46.9001177 263.019238,46.4287272 260.54,46.51 C257.479946,46.4052116 254.444863,47.0942202 251.73,48.51 C249.532943,49.6734506 247.612626,51.2970222 246.1,53.27 C245.370324,54.2529271 244.762553,55.3207233 244.29,56.45 C243.750945,58.0138991 243.414865,59.6405243 243.29,61.29 C243.05,63.45 242.88,66.48 242.78,70.38 C242.68,74.28 242.633333,79.6466667 242.64,86.48 C242.64,90.63 242.71,94.4 242.86,97.82 C243.01,101.24 243.17,104.97 243.36,109.01 C241.146667,108.816667 239.03,108.72 237.01,108.72 C234.99,108.72 232.873333,108.816667 230.66,109.01 C231.14,103.716667 231.473333,98.3266667 231.66,92.84 C231.846667,87.3533333 231.94,81.96 231.94,76.66 C231.94,72.14 231.916667,68.6033333 231.87,66.05 C231.852934,64.0251991 231.732778,62.0025804 231.51,59.99 C231.369768,58.7368322 231.10513,57.5007372 230.72,56.3 C230.326797,55.2154932 229.86589,54.1567438 229.34,53.13 C228.124371,51.1437853 226.39754,49.5205643 224.34,48.43 C222.226177,47.1523876 219.809721,46.4619716 217.34,46.43 C210.993333,46.43 206.326667,48.5 203.34,52.64 C200.353333,56.78 198.863333,62.6066667 198.87,70.12 L198.87,82.5 C198.87,86.8333333 198.94,91.3833333 199.08,96.15 C199.22,100.916667 199.533333,105.223333 200.02,109.07 C197.813333,108.876667 195.646667,108.78 193.52,108.78 C191.4,108.78 189.24,108.88 187.02,109.07 C187.513333,105.223333 187.826667,100.916667 187.96,96.15 C188.093333,91.3833333 188.166667,86.8333333 188.18,82.5 L188.18,67.5 C188.186667,63.1666667 188.126667,58.6133333 188,53.84 Z" id="Path"></path>
                    <path d="M300.83,77 C300.83,65.16 303.643333,55.87 309.27,49.13 C314.896667,42.39 323.106667,39.0133333 333.9,39 C338.41977,38.8935849 342.914031,39.7067025 347.11,41.39 C350.615665,42.8463618 353.784569,45.0077514 356.42,47.74 C358.92853,50.4019148 360.825999,53.5791505 361.98,57.05 C363.206001,60.7280865 363.817526,64.583063 363.79,68.46 C363.79,69.46 363.79,70.37 363.72,71.28 C363.65,72.19 363.59,73.13 363.5,74.09 L348.05,73.81 C342.943333,73.71 337.793333,73.66 332.6,73.66 C329.42,73.66 326.26,73.71 323.14,73.81 L313.68,74.09 C313.562493,74.8070792 313.512274,75.5335729 313.53,76.26 L313.53,78.14 C313.504129,81.7211994 314.068348,85.2822032 315.2,88.68 C316.212307,91.7986125 317.85651,94.6751171 320.03,97.13 C322.206509,99.5327874 324.864024,101.450968 327.83,102.76 C331.202057,104.215749 334.847971,104.928561 338.52,104.85 C340.519052,104.841716 342.508727,104.576202 344.44,104.06 C346.477274,103.524734 348.459416,102.798172 350.36,101.89 C352.26784,100.990984 354.080314,99.9021591 355.77,98.64 C357.379146,97.4686173 358.857648,96.1275729 360.18,94.64 L360.9,95.07 L360.03,102.15 C356.774551,104.667652 353.148051,106.664758 349.28,108.07 C345.016091,109.705502 340.486804,110.539487 335.92,110.53 C331.072112,110.588086 326.252908,109.778677 321.69,108.14 C313.328634,105.13668 306.652955,98.6975979 303.35,90.45 C301.641983,86.1735951 300.785947,81.6046739 300.83,77 Z M334.18,43.65 C331.002169,43.5454696 327.866355,44.399108 325.18,46.1 C322.753233,47.7041499 320.68622,49.795 319.11,52.24 C317.507359,54.7365618 316.290344,57.4605183 315.5,60.32 C314.722442,63.0330961 314.216619,65.8167935 313.99,68.63 L323.3,68.92 C326.533333,69.0066667 329.686667,69.0533333 332.76,69.06 C335.94,69.06 339.16,69.06 342.44,68.92 L351.97,68.63 C351.956482,65.8743954 351.739223,63.1235623 351.32,60.4 C350.904278,57.5786652 350.025809,54.8452748 348.72,52.31 C347.439392,49.8340002 345.580077,47.7036779 343.3,46.1 C340.590973,44.3506795 337.400624,43.4971211 334.18,43.66 L334.18,43.65 Z" id="Shape"></path>
                    <path d="M377.58,53.84 C377.426667,49.0666667 377.113333,44.6133333 376.64,40.48 C378.782602,40.902118 380.956958,41.1429698 383.14,41.2 C383.984585,41.1953137 384.82738,41.1217363 385.66,40.98 L388.91,40.48 C388.623333,44.3333333 388.48,48.1833333 388.48,52.03 L388.77,52.03 C393.87,43.3633333 401.04,39.03 410.28,39.03 C412.681631,39.0320499 415.068964,39.3995912 417.36,40.12 C419.586947,40.8121893 421.702149,41.8226363 423.64,43.12 C425.498416,44.3528234 427.134845,45.8912019 428.48,47.67 C429.783643,49.3564013 430.717263,51.2986019 431.22,53.37 L431.51,53.37 C433.593426,48.9879332 436.886115,45.2927654 441,42.72 C445.145682,40.2109376 449.914804,38.921611 454.76,39 C457.746239,38.9749074 460.718281,39.4134607 463.57,40.3 C468.993899,41.947225 473.311371,46.0753664 475.2,51.42 C476.377583,54.7577866 476.940019,58.2814808 476.86,61.82 C476.86,63.46 476.81,65.24 476.71,67.16 C476.61,69.09 476.52,71.33 476.42,73.88 C476.32,76.43 476.23,79.32 476.13,82.54 C476.03,85.76 475.99,89.54 475.99,93.73 C475.99,96.33 475.99,98.84 476.06,101.24 C476.13,103.64 476.23,106.24 476.42,109.04 C475.373971,108.849906 474.313157,108.75286 473.25,108.75 L467,108.75 C465.933502,108.752268 464.869316,108.849317 463.82,109.04 C464.11,106.64 464.42,101.77 464.76,94.46 C465.1,87.15 465.26,76.94 465.26,63.84 C465.274972,61.5528961 465.009662,59.2725735 464.47,57.05 C464.018197,55.0868457 463.1784,53.2338527 462,51.6 C460.788836,50.0093511 459.201223,48.7447592 457.38,47.92 C455.105797,46.9291518 452.639317,46.4577193 450.16,46.54 C447.100162,46.4374858 444.06565,47.1263647 441.35,48.54 C439.156611,49.7088702 437.23736,51.3315412 435.72,53.3 C434.993317,54.2831183 434.388881,55.3509558 433.92,56.48 C433.371231,58.0412176 433.034884,59.6691369 432.92,61.32 C432.673333,63.48 432.503333,66.51 432.41,70.41 C432.316667,74.31 432.266667,79.6766667 432.26,86.51 C432.26,90.66 432.34,94.43 432.48,97.85 C432.62,101.27 432.79,105 432.99,109.04 C430.77,108.846667 428.65,108.75 426.63,108.75 C424.61,108.75 422.493333,108.846667 420.28,109.04 C420.76,103.746667 421.093333,98.3566667 421.28,92.87 C421.466667,87.3833333 421.563333,81.99 421.57,76.69 C421.57,72.17 421.57,68.63 421.5,66.08 C421.485539,64.0548227 421.362027,62.0318936 421.13,60.02 C420.994527,58.766063 420.729787,57.5294903 420.34,56.33 C419.950542,55.2455386 419.492964,54.1867635 418.97,53.16 C417.749814,51.1774962 416.024118,49.5553421 413.97,48.46 C411.8554,47.1841713 409.439438,46.4938966 406.97,46.46 C400.616667,46.46 395.95,48.53 392.97,52.67 C389.99,56.81 388.496667,62.6366667 388.49,70.15 L388.49,82.5 C388.49,86.8333333 388.563333,91.3833333 388.71,96.15 C388.856667,100.916667 389.166667,105.223333 389.64,109.07 C387.43,108.88 385.26,108.78 383.15,108.78 C381.04,108.78 378.86,108.88 376.65,109.07 C377.13,105.223333 377.443333,100.916667 377.59,96.15 C377.736667,91.3833333 377.806667,86.8333333 377.8,82.5 L377.8,67.5 C377.793333,63.1666667 377.72,58.6133333 377.58,53.84 Z" id="Path"></path>
                    <path d="M497.8,47.41 C501.397328,44.5363842 505.454465,42.2914349 509.8,40.77 C513.436372,39.6037462 517.231191,39.0066946 521.05,39 C524.289647,38.9657022 527.51176,39.4796173 530.58,40.52 C533.306878,41.4377215 535.813224,42.9122433 537.94,44.85 C539.982097,46.7594197 541.606259,49.0713822 542.71,51.64 C543.884696,54.402402 544.473765,57.3783946 544.44,60.38 C544.44,65.86 544.343333,71.3233333 544.15,76.77 C543.956667,82.2166667 543.86,87.9666667 543.86,94.02 C543.86,95.18 543.86,96.41 543.93,97.71 C543.959504,98.8907504 544.178981,100.059043 544.58,101.17 C544.932523,102.129208 545.500426,102.994746 546.24,103.7 C547.158236,104.431684 548.319269,104.788925 549.49,104.7 C549.97,104.7 550.49,104.7 551.01,104.63 C551.548489,104.576082 552.067966,104.401784 552.53,104.12 L552.53,107.3 C551.24732,107.841538 549.904437,108.227617 548.53,108.45 C546.790188,108.755221 545.026338,108.902487 543.26,108.89 C540.18,108.89 537.82,108.09 536.19,106.51 C534.529076,104.870772 533.504789,102.694607 533.3,100.37 C530.329552,103.4689 526.865934,106.053941 523.05,108.02 C519.149659,109.769802 514.902858,110.610956 510.63,110.48 C508.234219,110.488458 505.849719,110.151664 503.55,109.48 C501.285053,108.835954 499.189072,107.702622 497.41,106.16 C495.619147,104.605583 494.148399,102.717047 493.08,100.6 C491.942843,98.2908776 491.373717,95.7435247 491.42,93.17 C491.42,87.39 493.226667,82.9133333 496.84,79.74 C500.453333,76.5666667 505.433333,74.4466667 511.78,73.38 C516.98,72.52 521.046667,71.7766667 523.98,71.15 C526.214854,70.7293667 528.395251,70.0584754 530.48,69.15 C531.615945,68.7403016 532.531724,67.8788176 533.01,66.77 C533.333701,65.6188106 533.482034,64.4254051 533.45,63.23 C533.457909,60.8922783 533.165516,58.5632224 532.58,56.3 C532.056388,54.2128468 531.121458,52.2511954 529.83,50.53 C528.527404,48.8322629 526.846012,47.4624939 524.92,46.53 C522.618438,45.4573118 520.098207,44.9368292 517.56,45.01 C513.81515,44.9877579 510.121511,45.8802729 506.8,47.61 C503.634541,49.1914925 501.035766,51.7134216 499.36,54.83 L497.8,54.83 L497.8,47.41 Z M533.47,73.11 C531.609983,73.7502153 529.700116,74.2352079 527.76,74.56 C525.593333,74.94 523.403333,75.35 521.19,75.79 C518.970285,76.2182632 516.77674,76.7724924 514.62,77.45 C512.565508,78.0648727 510.616535,78.98878 508.84,80.19 C507.201127,81.3177647 505.834583,82.7970486 504.84,84.52 C503.754431,86.5597374 503.229895,88.8511323 503.32,91.16 C503.32,95.6866667 504.62,99.1066667 507.22,101.42 C509.568158,103.628715 512.66633,104.865125 515.89,104.88 C519.449059,104.907565 522.933849,103.862128 525.89,101.88 C528.716203,100.064237 531.106469,97.6466537 532.89,94.8 L533.47,73.11 Z" id="Shape"></path>
                    <path d="M615.92,95.35 C615.024573,97.0983174 613.98779,98.7705477 612.82,100.35 C611.422702,102.235939 609.77025,103.91868 607.91,105.35 C605.792396,106.96657 603.428989,108.232681 600.91,109.1 C597.889193,110.115911 594.716561,110.60635 591.53,110.55 C587.861869,110.547223 584.221749,109.911217 580.77,108.67 C577.202241,107.387151 573.985812,105.283969 571.38,102.53 C568.435799,99.3574381 566.175633,95.6131882 564.74,91.53 C562.937843,86.3550602 562.080874,80.8982387 562.21,75.42 C562.092295,69.9596753 563.02592,64.5276743 564.96,59.42 C566.580802,55.2120978 569.005991,51.3603273 572.1,48.08 C574.91707,45.1366333 578.325036,42.8226247 582.1,41.29 C585.634855,39.816854 589.420664,39.0393199 593.25,39 C603.916667,39 611.33,43.8133333 615.49,53.44 L615.78,53.44 L615.78,39.32 C615.78,35.67 615.78,31.98 615.7,28.32 C615.62,24.66 615.61,21.07 615.56,17.7 C615.51,14.33 615.46,11.16 615.42,8.17 C615.38,5.18 615.29,2.54 615.2,0.23 C616.35,0.42 617.46,0.59 618.52,0.73 C619.573521,0.877890388 620.63615,0.951405564 621.7,0.95 C622.737349,0.953333936 623.773519,0.879799291 624.8,0.73 L628.2,0.23 C627.906667,3.31 627.663333,7.76333333 627.47,13.59 C627.276667,19.4166667 627.11,25.8433333 626.97,32.87 C626.823333,39.89 626.703333,47.11 626.61,54.53 C626.516667,61.95 626.466667,68.7366667 626.46,74.89 C626.46,81.5566667 626.51,87.5233333 626.61,92.79 C626.71,98.0566667 626.806667,103.496667 626.9,109.11 C624.97,108.92 623.09,108.82 621.26,108.82 C619.43,108.82 617.7,108.92 615.78,109.11 L616.21,95.39 L615.92,95.35 Z M574.92,76.29 C574.794098,81.1202306 575.400989,85.9416466 576.72,90.59 C577.680651,93.85566 579.251725,96.9095845 581.35,99.59 C583.021577,101.712577 585.24159,103.337821 587.77,104.29 C590.037587,105.127598 592.432768,105.567391 594.85,105.59 C598.288736,105.682924 601.670261,104.696791 604.52,102.77 C607.271004,100.837304 609.56485,98.3249971 611.24,95.41 C613.086002,92.198304 614.402854,88.710335 615.14,85.08 C615.945887,81.282691 616.354752,77.4118786 616.36,73.53 C616.36,64.2833333 614.58,57.23 611.02,52.37 C607.46,47.51 602.213333,45.08 595.28,45.08 C592.115054,45.004222 588.993765,45.8296296 586.28,47.46 C583.649484,49.1249239 581.466057,51.4079092 579.92,54.11 C578.134023,57.2169969 576.867358,60.5947711 576.17,64.11 C575.319839,68.1139211 574.897469,72.1968349 574.91,76.29 L574.92,76.29 Z" id="Shape"></path>
                    <path d="M640,77 C640,65.16 642.816667,55.87 648.45,49.13 C654.083333,42.39 662.303333,39.0133333 673.11,39 C677.62977,38.8935849 682.124031,39.7067025 686.32,41.39 C689.825665,42.8463618 692.994569,45.0077514 695.63,47.74 C698.13853,50.4019148 700.035999,53.5791505 701.19,57.05 C702.416001,60.7280865 703.027526,64.583063 703,68.46 C703,69.46 703,70.37 702.93,71.28 C702.86,72.19 702.8,73.13 702.71,74.09 L687.26,73.81 C682.153333,73.71 677.003333,73.66 671.81,73.66 C668.63,73.66 665.47,73.71 662.35,73.81 L652.89,74.09 C652.772493,74.8070792 652.722274,75.5335729 652.74,76.26 L652.74,78.14 C652.714129,81.7211994 653.278348,85.2822032 654.41,88.68 C655.422307,91.7986125 657.06651,94.6751171 659.24,97.13 C661.416509,99.5327874 664.074024,101.450968 667.04,102.76 C670.412057,104.215749 674.057971,104.928561 677.73,104.85 C679.729052,104.841716 681.718727,104.576202 683.65,104.06 C685.687274,103.524734 687.669416,102.798172 689.57,101.89 C691.47784,100.990984 693.290314,99.9021591 694.98,98.64 C696.589146,97.4686173 698.067648,96.1275729 699.39,94.64 L700.11,95.07 L699.24,102.15 C695.985891,104.669693 692.359059,106.666981 688.49,108.07 C684.226091,109.705502 679.696804,110.539487 675.13,110.53 C670.282112,110.588086 665.462908,109.778677 660.9,108.14 C652.538634,105.13668 645.862955,98.6975979 642.56,90.45 C640.838301,86.1763399 639.968659,81.6073241 640,77 Z M673.35,43.65 C670.172387,43.5473267 667.037108,44.4008191 664.35,46.1 C661.926848,47.7052283 659.863313,49.796005 658.29,52.24 C656.680057,54.7338973 655.459391,57.4584793 654.67,60.32 C653.892442,63.0330961 653.386619,65.8167935 653.16,68.63 L662.47,68.92 C665.703333,69.0066667 668.856667,69.0533333 671.93,69.06 C675.11,69.06 678.33,69.06 681.61,68.92 L691.14,68.63 C691.126482,65.8743954 690.909223,63.1235623 690.49,60.4 C690.074278,57.5786652 689.195809,54.8452748 687.89,52.31 C686.609392,49.8340002 684.750077,47.7036779 682.47,46.1 C679.772235,44.3587923 676.597163,43.5055788 673.39,43.66 L673.35,43.65 Z" id="Shape"></path>
                </g>
                <path d="M110.333575,121.419667 C110.333575,121.419667 113.281061,74.9431288 75.8643562,81.6646035 C75.8643562,81.6646035 34.5176689,87.4024477 56.3781947,148.633442 C56.3781947,148.633442 70.62438,182.076877 90.6017893,191.667274 C90.6017893,191.667274 106.239843,203.470839 130.310984,182.650662 C130.310984,182.650662 155.282746,164.535468 158.230232,137.403662 C158.230232,137.403662 164.698328,108.632471 140.135939,104.779919 C127.93662,104.69795 116.637921,111.009578 110.333575,121.419667 Z" id="Path" fill="url(#linearGradient-1)"></path>
                <g fill="#1B1B1B">
                    <path d="M139.965915,144.717751 C144.956941,139.794445 148.802485,133.722367 150.602527,126.583573 C151.338908,123.875755 151.420728,121.085881 150.929808,118.378063 C149.947967,113.782977 147.084263,110.911049 142.584158,109.516112 C139.065894,108.449395 135.71127,109.023781 132.356646,110.008442 C122.292773,112.880371 115.174425,119.526834 109.774299,128.30673 C107.646976,131.753045 105.765114,135.363469 105.274193,139.466224 C105.192373,140.286775 104.865093,141.107326 104.374172,141.845822 C103.883251,142.338153 103.228691,142.584318 102.57413,142.584318 C101.919569,142.256098 101.510469,141.681712 101.346828,140.943216 C101.346828,139.8765 101.510469,138.891839 101.837749,137.825122 C103.965072,125.188636 103.555971,112.798316 97.5012838,101.064436 C95.8648819,97.7822321 93.4102789,94.9103035 90.4647554,92.6948157 C85.0646289,88.4279504 77.4553598,88.4279504 71.9734133,92.6948157 C68.2096888,95.4846892 65.3459853,99.341279 63.6277633,103.690199 C59.4549383,113.618867 57.7367162,124.368085 58.5549172,135.117304 C59.7003986,151.446269 65.5096255,165.887967 76.3916985,178.114178 C84.9009887,187.550514 95.2103211,193.868757 107.974256,195.67397 C120.001811,197.397127 131.374804,195.181639 142.256877,189.930112 C153.711691,184.350365 162.793722,176.22691 168.684769,164.657141 C172.039393,158.092733 173.348515,150.953939 174.003075,143.651035 C175.394017,128.717006 175.721297,113.700922 175.148557,98.6848382 C175.066737,97.6181219 175.148557,96.5514055 175.230377,95.5667443 C175.721297,91.8742647 177.439519,90.2331626 181.121424,89.9869973 C184.966969,89.6587769 188.812513,89.4126116 192.658058,89.0843912 C194.70356,88.920281 196.830883,88.7561708 198.876385,87.2791789 C197.403623,85.3098565 196.176322,83.2584789 194.70356,81.4532666 C185.785169,70.4578829 176.212218,59.9548297 166.148346,50.0261623 C154.611712,38.4563928 142.584158,27.3789539 129.492942,17.6964518 C122.947334,12.8552008 116.238086,8.42422521 108.710637,5.22407621 C102.98323,2.84447823 97.5831039,3.09064353 92.1829774,6.20873744 C83.6736873,11.2961538 75.4916775,16.9579559 67.8824084,23.3582539 C47.9183045,39.9333847 28.8542216,57.5752317 11.7538212,77.1864013 C9.05375794,80.3865503 6.599155,83.7508095 4.22637216,87.2791789 C3.24453099,88.7561708 3.48999128,89.5767218 5.20821334,90.0690524 C7.33553589,90.7254933 9.54467853,91.1357688 11.7538212,91.299879 C15.1902653,91.6280994 18.7085295,91.5460443 22.1449736,91.7922096 C23.8631957,91.9563198 25.4995976,92.2024851 27.2178197,92.5307055 C29.0178618,92.7768708 30.3269834,94.3359178 30.2451633,96.14113 C30.4088035,99.7515546 30.4906236,103.444034 30.6542638,107.054459 C30.9815442,113.618867 31.1451844,120.183275 31.636105,126.747683 C32.5361261,137.332792 34.2543481,147.835845 37.8544324,157.846567 C46.691003,182.134878 63.5459432,197.725347 88.4192529,204.535921 C88.5828931,204.617976 88.6647132,204.617976 88.8283534,204.617976 C89.9738348,204.782086 90.7102157,205.274417 90.5465755,206.587298 C90.3829353,207.73607 89.4829142,208.2284 88.0101525,207.90018 C83.0191265,206.833464 78.1917407,205.110306 73.6098152,202.812764 C51.7638491,191.899435 37.9362525,174.503753 32.1270256,150.789828 C29.5087824,139.794445 27.9542006,128.634951 27.5451001,117.311347 C27.2996398,110.993104 27.1359996,104.592806 26.8905393,98.2745627 C26.8087192,95.6487994 26.5632589,95.320579 23.9450158,95.0744137 C21.0813123,94.8282484 18.1357888,94.9923586 15.2720854,94.8282484 C12.0811016,94.6641382 8.80829765,94.5820831 5.61731383,93.8435872 C-0.191913124,92.5307055 -1.58285479,89.0843912 1.85358932,84.161085 C5.20821334,79.4018891 8.89011775,74.8068033 12.8174824,70.4578829 C33.1906868,48.4671153 55.036653,28.0353948 79.255402,10.3114926 C83.0191265,7.60367419 87.1101314,5.30613131 91.1193162,2.84447823 C96.846723,-0.683891191 102.90141,-0.765946294 109.037918,1.69570679 C115.747166,4.48558028 122.129133,8.0960048 128.02018,12.4449252 C141.765957,22.2915376 154.366252,33.6151418 166.311986,45.5131316 C176.457678,55.6059093 186.52155,65.780742 195.439941,77.1043462 C197.158163,79.319834 198.958205,81.5353217 200.512787,83.8328646 C203.13103,87.5253442 202.312829,90.3152177 197.894544,91.4639892 C194.8672,92.12043 191.839857,92.5307055 188.730693,92.6948157 C186.27609,92.940981 183.821487,93.0230361 181.285064,93.2692014 C178.830461,93.5153667 178.503181,93.9256423 178.503181,96.3052402 C178.421361,100.079775 178.585001,103.85431 178.503181,107.628844 C178.25772,117.803677 178.09408,127.97851 177.60316,138.153343 C177.357699,143.651035 176.703139,149.066671 175.557657,154.482308 C172.448494,168.34962 164.511944,179.098839 153.05713,187.222294 C142.175057,195.181639 129.083842,199.448504 115.665346,199.612615 C100.774088,199.776725 88.0101525,194.196978 77.3735397,184.022145 C65.2641652,172.534431 58.3094569,158.256843 55.6912138,141.927877 C53.4820711,128.552896 55.1184731,114.931749 60.2731393,102.459373 C61.6640809,99.0130586 63.7095834,95.8129096 66.2460064,93.0230361 C74.6734765,83.7508095 86.8646711,83.6687544 95.5376015,92.7768708 C99.5467863,96.9616811 102.001389,102.049097 103.637791,107.546789 C105.356013,113.372702 106.256034,119.526834 106.174214,125.598912 C106.419674,126.009187 106.419674,126.337408 106.419674,126.419463 C109.283378,123.055204 111.983441,119.444779 115.092605,116.24463 C119.75635,111.403379 125.729218,108.03912 132.274825,106.480073 C136.28401,105.577467 140.293195,105.249246 144.30238,106.562128 C150.357067,108.531451 153.957151,113.290647 154.529892,119.526834 C155.184453,126.501518 152.81167,132.737706 149.211586,138.481563 C147.166083,141.681712 144.956941,144.553641 142.502338,147.015294 C142.420518,147.015294 139.720454,147.015294 139.965915,144.717751 Z" id="Path"></path>
                    <g transform="translate(114.000000, 143.000000)" id="Shape">
                        <path d="M5.5,26.6976744 C5.58333333,26.7790698 5.75,26.9418605 5.83333333,27.0232558 C6.41666667,25.4767442 6.16666667,23.1976744 5.41666667,21.1627907 C3.58333333,22.2209302 3.5,19.127907 4.25,18.3139535 C4.75,17.744186 5.41666667,18.5581395 5.91666667,19.6976744 C6.5,19.0465116 6.91666667,18.2325581 7.33333333,17.1744186 C7.41666667,16.8488372 7.58333333,16.6860465 7.83333333,16.6046512 C8.5,16.5232558 9.5,16.6046512 9.41666667,17.5 C9.25,18.9651163 9.25,20.5930233 9.58333333,21.4883721 C10,22.4651163 10.75,22.627907 11.3333333,22.1395349 C12.0833333,21.4883721 12.1666667,19.7790698 11.75,18.3953488 C11.6666667,18.2325581 11.8333333,18.0697674 12,18.1511628 C12.25,18.1511628 12.5833333,18.3953488 12.75,18.9651163 C13.0833333,20.1046512 12.5,21.6511628 11.5,22.627907 C10.0833333,23.9302326 8.66666667,23.6860465 8,22.3837209 C7.5,21.244186 7.66666667,19.372093 7.75,18.0697674 C7.33333333,19.127907 6.66666667,20.0232558 6.08333333,20.5930233 C6.91666667,22.7093023 7.16666667,25.4767442 6,27.5116279 C7,28.9767442 7.66666667,31.1744186 7.58333333,32.7209302 C7.5,33.9418605 6.83333333,34.3488372 6,34.5930233 C5.25,34.8372093 4.25,34.8372093 3.41666667,33.6976744 C1,30.6860465 0.166666667,22.3023256 0,18.4767442 C0,18.1511628 0.166666667,17.9883721 0.416666667,18.0697674 C1.08333333,18.2325581 1.58333333,18.8023256 1.75,20.3488372 C1.91666667,21.8139535 2.08333333,24.3372093 2.5,26.4534884 C3.75,25.7209302 4.66666667,25.8023256 5.5,26.6976744 Z M4,27.4302326 C3.58333333,26.9418605 3,26.7790698 2.83333333,27.0232558 C2.66666667,27.2674419 3.16666667,28 3.5,28.3255814 C3.91666667,28.6511628 4.41666667,28.8139535 4.75,28.4883721 C4.58333333,28.0813953 4.33333333,27.6744186 4,27.4302326 Z M3.41666667,29.4651163 C4.16666667,31.9883721 5.08333333,34.0232558 5.91666667,33.9418605 C6.66666667,33.8604651 6.25,31.0116279 5.08333333,28.8139535 C4.5,29.3023256 4,29.5465116 3.41666667,29.4651163 Z"></path>
                        <path d="M29.6666667,2.36046512 C29.9166667,3.5 29.4166667,5.20930233 28.3333333,6.18604651 C26.75,7.73255814 25.3333333,7.48837209 24.9166667,5.94186047 C24.5,4.39534884 24.6666667,1.54651163 24.3333333,1.70930233 C24.1666667,1.79069767 23.6666667,2.60465116 23.3333333,4.47674419 C22.9166667,6.8372093 23.25,8.79069767 23.75,10.5813953 C23.8333333,10.8255814 23.6666667,10.9883721 23.4166667,11.0697674 C22.9166667,11.1511628 22.1666667,10.9883721 21.75,9.68604651 C21.25,8.22093023 21.4166667,4.72093023 20.9166667,4.96511628 C20.6666667,5.12790698 20.0833333,6.26744186 19.9166667,8.22093023 C19.6666667,9.93023256 20,11.8837209 20.5,13.5930233 C20.5,13.755814 20.5,13.8372093 20.1666667,14 C19.5833333,14.1627907 19,13.9186047 18.6666667,13.0232558 C18.4166667,12.4534884 18.1666667,11.4767442 18,10.3372093 C17.75,11.0697674 17.3333333,11.7209302 16.6666667,12.2906977 C17.4166667,13.5930233 17.6666667,15.872093 16.5833333,17.5 C16.0833333,18.3139535 15.1666667,19.2093023 13.6666667,19.2906977 C12.0833333,19.372093 11.25,18.1511628 11,16.4418605 C10.8333333,14.9767442 11.1666667,13.2674419 12.1666667,12.127907 C12.6666667,11.5581395 13.0833333,11.3953488 13.8333333,11.3139535 C14.6666667,11.2325581 15.25,10.744186 16.1666667,11.7209302 C16.25,11.8023256 16.3333333,11.8837209 16.3333333,11.9651163 C17.5,10.8255814 17.6666667,8.79069767 17.5833333,7 C17.5833333,6.75581395 17.75,6.59302326 18,6.59302326 C18.6666667,6.59302326 19.0833333,7.08139535 19.3333333,7.81395349 C19.5,6.43023256 20.0833333,4.47674419 20.75,3.8255814 C21.4166667,3.25581395 22.4166667,3.5 22.75,4.23255814 C23,2.84883721 23.5833333,1.13953488 24.25,0.569767442 C24.9166667,-0.0813953488 25.8333333,0.488372093 26.0833333,1.38372093 C26.3333333,2.19767442 26.3333333,3.8255814 26.5,4.80232558 C26.75,5.94186047 27.5833333,6.26744186 28.25,5.53488372 C28.9166667,4.80232558 28.9166667,3.25581395 28.6666667,1.79069767 C28.6666667,1.62790698 28.8333333,1.46511628 29,1.46511628 C29.1666667,1.46511628 29.5833333,1.87209302 29.6666667,2.36046512 Z M12.75,13.4302326 C12.5833333,14.1627907 12.5,15.0581395 12.5833333,15.872093 C12.75,17.5 13.75,18.7209302 14.5,18.5581395 C15.3333333,18.3139535 15.9166667,16.8488372 15.6666667,14.9767442 C15.5833333,14.3255814 15.4166667,13.755814 15.1666667,13.3488372 C14.3333333,13.755814 13.3333333,13.8372093 12.75,13.4302326 Z M14.1666667,12.0465116 C13.6666667,11.8023256 13.3333333,12.2093023 13.6666667,12.6162791 C13.9166667,12.9418605 14.4166667,13.1046512 15,12.9418605 C14.75,12.5348837 14.5,12.2093023 14.1666667,12.0465116 Z"></path>
                    </g>
                </g>
            </g>
        </g>
    </g>
</svg>